<?xml version="1.0" encoding="UTF-8"?>
<svg width="546px" height="171px" viewBox="0 0 546 171" version="1.1" xmlns="http://www.w3.org/2000/svg" xmlns:xlink="http://www.w3.org/1999/xlink">
    <!-- Generator: Sketch 47.1 (45422) - http://www.bohemiancoding.com/sketch -->
    <title>Group 2</title>
    <desc>Created with Sketch.</desc>
    <defs></defs>
    <g id="Page-1" stroke="none" stroke-width="1" fill="none" fill-rule="evenodd">
        <g id="atis-logo-ver-2" transform="translate(-493.000000, -344.000000)">
            <g id="Group" transform="translate(493.000000, 344.000000)">
                <g id="Group-2">
                    <path d="M129.003831,169.448276 L65.7803321,169.448276 C21.8492976,169.448276 0,155.966794 0,129.003831 L0,116.684547 C0,89.7215837 21.8492976,76.2401022 65.7803321,76.2401022 L165.264368,76.2401022 C165.264368,66.9425287 154.339719,61.596424 128.074074,61.596424 L46.4032321,61.596424 C39.1976127,61.596424 37.8029767,53.8876705 37.8029767,49.9744572 C37.8029767,46.061244 39.1976127,38.1200511 46.4032321,38.1200511 L129.003831,38.1200511 C153.656028,38.1200511 171.354754,42.3653277 182.141083,50.855881 C190.576351,57.4957763 194.784163,66.7319811 194.784163,78.5644955 L194.784163,129.003831 C194.784163,155.966794 172.934866,169.448276 129.003831,169.448276 Z M66.7100894,145.971903 L128.074074,145.971903 C154.10728,145.971903 165.264368,138.301405 165.264368,129.003831 L165.264368,98.7867178 L66.7100894,98.7867178 C40.6768838,98.7867178 29.5197957,106.224777 29.5197957,115.754789 L29.5197957,129.003831 C29.5197957,138.301405 40.6768838,145.971903 66.7100894,145.971903 Z" id="Combined-Shape" fill="#28292B"></path>
                    <path d="M314.937834,38.1200511 L257.542784,38.1200511 L257.542784,10.9246488 C257.542784,1.85951469 252.661558,0 242.666667,0 C232.671775,0 228.022989,1.85951469 228.022989,10.9246488 L228.022989,38.1200511 L214.773946,38.1200511 C207.568327,38.1200511 206.40613,42.3039591 206.40613,49.9744572 C206.40613,57.6449553 207.568327,61.596424 214.773946,61.596424 L228.022989,61.596424 L228.022989,159.453384 C228.022989,168.518519 232.671775,170.378033 242.666667,170.378033 C252.661558,170.378033 257.542784,168.518519 257.542784,159.453384 L257.542784,61.596424 L315.316373,61.596424 C314.80059,59.3068506 314.545895,56.6619011 314.545895,53.6112045 L314.545895,44.053011 C314.545895,41.8745783 314.675766,39.9030386 314.937834,38.1200511 Z" id="Combined-Shape" fill="#28292B"></path>
                    <path d="M358.189017,73.8808279 L358.189017,159.14982 C358.189017,168.466848 353.307791,170.378033 343.312899,170.378033 C333.318008,170.378033 328.669221,168.466848 328.669221,159.14982 L328.669221,73.9653531 C332.621951,74.9009165 337.455247,75.2284377 343.204709,75.2284377 C349.124043,75.2284377 354.114496,74.8812769 358.189017,73.8808279 Z" id="Combined-Shape" fill="#28292B"></path>
                    <path d="M358.189017,46.3898949 C358.189017,37.0728672 353.307791,35.161682 343.312899,35.161682 C333.318008,35.161682 328.669221,37.0728672 328.669221,46.3898949 L328.669221,51.2743206 C328.669221,60.5913483 333.318008,62.5025335 343.312899,62.5025335 C353.307791,62.5025335 358.189017,60.5913483 358.189017,51.2743206 L358.189017,46.3898949 Z" id="Path" fill="#72EFDF"></path>
                    <path d="M377.016603,79.7266922 C377.016603,101.111111 396.076628,114.127714 433.499361,114.127714 L485.565773,114.127714 C509.739464,114.127714 516.247765,118.776501 516.247765,125.98212 L516.247765,134.349936 C516.247765,141.555556 509.739464,145.971903 484.636015,145.971903 L386.081737,145.971903 C378.876117,145.971903 377.481481,149.923372 377.481481,157.59387 C377.481481,165.729246 378.876117,169.448276 386.081737,169.448276 L480.219668,169.448276 C526.939974,169.448276 546,156.199234 546,133.885057 L546,126.446999 C546,104.132822 528.102171,91.1162197 484.636015,91.1162197 L433.266922,91.1162197 C414.671775,91.1162197 406.303959,86.467433 406.303959,79.2618135 L406.303959,73.2183908 C406.303959,66.0127714 414.439336,61.596424 432.104725,61.596424 L510.036025,61.596424 C517.241644,61.596424 518.63628,57.6449553 518.63628,49.9744572 C518.63628,41.8390805 517.241644,38.1200511 510.036025,38.1200511 L432.337165,38.1200511 C395.844189,38.1200511 377.016603,51.3690932 377.016603,72.9859515 L377.016603,79.7266922 Z" id="Path" fill="#28292B"></path>
                </g>
            </g>
        </g>
    </g>
</svg>